HIERARCHY
ROOT root
{
	OFFSET	0	13.1	24.9
	CHANNELS 6  Xposition Yposition Zposition Xrotation Yrotation Zrotation
	JOINT spine_1
	{
		OFFSET	0	9.99999	0
		CHANNELS 3  Xrotation Yrotation Zrotation
		JOINT spine_2
		{
			OFFSET	0	112	-10
			CHANNELS 3  Xrotation Yrotation Zrotation
			JOINT spine_3
			{
				OFFSET	0	206.5	19.3
				CHANNELS 3  Xrotation Yrotation Zrotation
				JOINT spine_4
				{
					OFFSET	0	110.4	14.6
					CHANNELS 3  Xrotation Yrotation Zrotation
					JOINT neck_1
					{
						OFFSET	0	71.8	-50.3
						CHANNELS 3  Xrotation Yrotation Zrotation
						JOINT neck_2
						{
							OFFSET	0	86.2	-25.8
							CHANNELS 3  Xrotation Yrotation Zrotation
							JOINT head_ee
							{
								OFFSET	0	179.8	-8.7
								CHANNELS 3  Xrotation Yrotation Zrotation
								End Site
								{
									OFFSET	1	0	0
								}
							}
						}
					}
					JOINT left_clavicle
					{
						OFFSET	-43.2	22.4	-70.8
						CHANNELS 3  Xrotation Yrotation Zrotation
						JOINT left_shoulder
						{
							OFFSET	-93.9	-5.79999	48.7
							CHANNELS 3  Xrotation Yrotation Zrotation
							JOINT left_elbow
							{
								OFFSET	-291.4	-30.8	15.2
								CHANNELS 3  Xrotation Yrotation Zrotation
								JOINT left_lowarm_twist
								{
									OFFSET	-110.7	-3.89999	13.6
									CHANNELS 3  Xrotation Yrotation Zrotation
									JOINT left_hand
									{
										OFFSET	-110.7	-3.89999	13.6
										CHANNELS 3  Xrotation Yrotation Zrotation
										JOINT left_ee
										{
											OFFSET	-80.8	-5.10001	12.1
											CHANNELS 3  Xrotation Yrotation Zrotation
											End Site
											{
												OFFSET	1	0	0
											}
										}
									}
								}
							}
						}
					}
					JOINT right_clavicle
					{
						OFFSET	43.2	22.4	-70.8
						CHANNELS 3  Xrotation Yrotation Zrotation
						JOINT right_shoulder
						{
							OFFSET	93.9	-5.79999	48.7
							CHANNELS 3  Xrotation Yrotation Zrotation
							JOINT right_elbow
							{
								OFFSET	291.4	-30.8	15.2
								CHANNELS 3  Xrotation Yrotation Zrotation
								JOINT right_lowarm_twist
								{
									OFFSET	110.7	-3.89999	13.6
									CHANNELS 3  Xrotation Yrotation Zrotation
									JOINT right_hand
									{
										OFFSET	110.7	-3.89999	13.6
										CHANNELS 3  Xrotation Yrotation Zrotation
										JOINT right_ee
										{
											OFFSET	80.8	-5.10001	12.1
											CHANNELS 3  Xrotation Yrotation Zrotation
											End Site
											{
												OFFSET	1	0	0
											}
										}
									}
								}
							}
						}
					}
				}
			}
		}
	}
	JOINT left_hip
	{
		OFFSET	-82.8	-127.5	0.300001
		CHANNELS 3  Xrotation Yrotation Zrotation
		JOINT left_knee
		{
			OFFSET	-28.2	-396.7	2.2
			CHANNELS 3  Xrotation Yrotation Zrotation
			JOINT left_ankle
			{
				OFFSET	-11.7	-411.3	35.4
				CHANNELS 3  Xrotation Yrotation Zrotation
				JOINT left_toes
				{
					OFFSET	0	-60	-88.6
					CHANNELS 3  Xrotation Yrotation Zrotation
					JOINT left_foot_ee
					{
						OFFSET	-22.5	-16.5	-42.2
						CHANNELS 3  Xrotation Yrotation Zrotation
						End Site
						{
							OFFSET	1	0	0
						}
					}
				}
			}
		}
	}
	JOINT right_hip
	{
		OFFSET	82.8	-127.5	0.300001
		CHANNELS 3  Xrotation Yrotation Zrotation
		JOINT right_knee
		{
			OFFSET	28.2	-396.7	2.2
			CHANNELS 3  Xrotation Yrotation Zrotation
			JOINT right_ankle
			{
				OFFSET	11.7	-411.3	35.4
				CHANNELS 3  Xrotation Yrotation Zrotation
				JOINT right_toes
				{
					OFFSET	0	-60	-88.6
					CHANNELS 3  Xrotation Yrotation Zrotation
					JOINT right_foot_ee
					{
						OFFSET	22.5	-16.5	-42.2
						CHANNELS 3  Xrotation Yrotation Zrotation
						End Site
						{
							OFFSET	1	0	0
						}
					}
				}
			}
		}
	}
}
MOTION
Frames: 16
Frame Time: 0.02
3177.02 653.055 -1669.29 1.47718298042 10.641987882 -4.5750812944 -3.45182 0.847415 4.44805 -3.441 0.562951 4.49283 -3.38029 -0.659945 4.47964 -3.40828 0.0550597 4.52755 7.16768 -12.8851 -14.3759 7.61706 -8.65004 -17.2758 -0.0 0.0 -0.0 7.23407 -1.83853 14.0572 -15.2725 -5.62054 65.0967 0.254616 -7.18889 0.0159943 8.0662 0.213581 -1.00739 0.448 -21.861 -6.32112 -0.0 0.0 -0.0 7.12438 28.8903 -12.1873 10.3174 48.609 -80.215 0.214324 6.06053 -0.0113458 -72.2175 6.82926 -5.31665 2.57395 21.8506 -7.67736 0.0 0.0 0.0 26.2889 -18.2557 5.6606 -7.78471 0.241376 1.16942 -4.98353 26.9929 0.776797 -16.8438 0.0 0.0 -0.0 0.0 -0.0 -12.1046 27.6792 0.542257 -19.9816 -0.295857 -3.03655 -22.8325 -28.4035 -3.64884 17.6469 -0.0 -0.0 0.0 0.0 0.0 
3177.02 653.055 -1669.29 1.47886414509 10.9831407264 -4.58404284372 -3.45182 0.847415 4.44805 -3.441 0.562951 4.49283 -3.38029 -0.659945 4.47964 -3.40828 0.0550597 4.52755 7.16768 -12.8851 -14.3759 7.61706 -8.65004 -17.2758 -0.0 0.0 -0.0 7.23407 -1.83853 14.0572 -15.2725 -5.62054 65.0967 0.254616 -7.18889 0.0159943 8.0662 0.213581 -1.00739 0.448 -21.861 -6.32112 -0.0 0.0 -0.0 7.12438 28.8903 -12.1873 10.3174 48.609 -80.215 0.214324 6.06053 -0.0113458 -72.2175 6.82926 -5.31665 2.57395 21.8506 -7.67736 0.0 0.0 0.0 26.2889 -18.2557 5.6606 -7.78471 0.241376 1.16942 -4.98353 26.9929 0.776797 -16.8438 0.0 0.0 -0.0 0.0 -0.0 -12.1046 27.6792 0.542257 -19.9816 -0.295857 -3.03655 -22.8325 -28.4035 -3.64884 17.6469 -0.0 -0.0 0.0 0.0 0.0 
3177.02 653.055 -1669.29 1.48003830588 11.2148856789 -4.59014220731 -3.45182 0.847415 4.44805 -3.441 0.562951 4.49283 -3.38029 -0.659945 4.47964 -3.40828 0.0550597 4.52755 7.16768 -12.8851 -14.3759 7.61706 -8.65004 -17.2758 -0.0 0.0 -0.0 7.23407 -1.83853 14.0572 -15.2725 -5.62054 65.0967 0.254616 -7.18889 0.0159943 8.0662 0.213581 -1.00739 0.448 -21.861 -6.32112 -0.0 0.0 -0.0 7.12438 28.8903 -12.1873 10.3174 48.609 -80.215 0.214324 6.06053 -0.0113458 -72.2175 6.82926 -5.31665 2.57395 21.8506 -7.67736 0.0 0.0 0.0 26.2889 -18.2557 5.6606 -7.78471 0.241376 1.16942 -4.98353 26.9929 0.776797 -16.8438 0.0 0.0 -0.0 0.0 -0.0 -12.1046 27.6792 0.542257 -19.9816 -0.295857 -3.03655 -22.8325 -28.4035 -3.64884 17.6469 -0.0 -0.0 0.0 0.0 0.0 
3177.02 653.055 -1669.29 1.48114679219 11.4290836838 -4.59578845246 -3.45182 0.847415 4.44805 -3.441 0.562951 4.49283 -3.38029 -0.659945 4.47964 -3.40828 0.0550597 4.52755 7.16768 -12.8851 -14.3759 7.61706 -8.65004 -17.2758 -0.0 0.0 -0.0 7.23407 -1.83853 14.0572 -15.2725 -5.62054 65.0967 0.254616 -7.18889 0.0159943 8.0662 0.213581 -1.00739 0.448 -21.861 -6.32112 -0.0 0.0 -0.0 7.12438 28.8903 -12.1873 10.3174 48.609 -80.215 0.214324 6.06053 -0.0113458 -72.2175 6.82926 -5.31665 2.57395 21.8506 -7.67736 0.0 0.0 0.0 26.2889 -18.2557 5.6606 -7.78471 0.241376 1.16942 -4.98353 26.9929 0.776797 -16.8438 0.0 0.0 -0.0 0.0 -0.0 -12.1046 27.6792 0.542257 -19.9816 -0.295857 -3.03655 -22.8325 -28.4035 -3.64884 17.6469 -0.0 -0.0 0.0 0.0 0.0 
3147.06481927 673.034 -1714.17325687 1.36100932404 7.67243554649 -5.75344228613 -3.40128 0.967678 4.4765 -3.3904 0.681167 4.52885 -3.31949 -0.55051 4.54655 -3.34829 0.173663 4.5764 6.10834 -10.1877 -7.52929 6.30018 -10.6305 -9.10473 -0.0 0.0 -0.0 7.39426 -4.16191 14.3656 -10.3635 -7.14626 62.7225 0.191408 -5.41662 0.00905445 9.49696 0.236555 -1.1887 1.26808 -25.4199 -2.52498 -0.0 0.0 -0.0 8.8111 27.701 -16.0325 -1.68979 49.4223 -75.6293 0.230859 6.52422 -0.0131581 -72.631 6.88212 -5.31811 2.28399 19.2743 -6.98811 0.0 0.0 0.0 23.2547 -16.1415 6.86858 -8.16406 0.249055 1.22713 0.726338 26.5456 -0.111669 -19.8745 0.0 0.0 -0.0 0.0 -0.0 -0.472222 25.0033 -1.01776 -42.2437 0.615646 -6.30949 -21.8242 -29.5597 -3.51313 22.8285 -0.0 -0.0 0.0 0.0 0.0 
3143.17919835 676.396 -1744.27812402 1.77690317993 7.63896159027 -5.39962253082 -3.26799 0.734858 3.96797 -3.25936 0.481084 4.0066 -3.21304 -0.596949 3.99101 -3.23526 0.0403153 4.03514 7.87297 -10.4355 -8.79861 8.0754 -9.48972 -10.6622 -0.0 0.0 -0.0 6.82972 -4.69651 13.198 -9.96731 -7.47324 61.7696 0.244447 -6.90459 0.0147468 9.19189 0.232037 -1.14999 1.78975 -27.8951 -0.319731 -0.0 0.0 -0.0 8.75333 27.7023 -15.9046 -6.88724 47.9833 -72.3637 0.227228 6.42247 -0.0127488 -72.5015 6.86556 -5.31769 2.18787 19.335 -6.31869 0.0 0.0 0.0 21.1773 -16.0791 7.77294 -9.32412 0.270164 1.40388 1.78095 25.0642 -0.270942 -18.7398 0.0 0.0 -0.0 0.0 -0.0 4.90825 22.87 0.0540784 -49.4081 1.17102 -7.26107 -24.7515 -29.3512 -3.98035 24.1667 -0.0 -0.0 0.0 0.0 0.0 
3143.2953345 676.396 -1744.33042602 1.77653647995 7.55029964727 -5.39684793822 -3.26799 0.734858 3.96797 -3.25936 0.481084 4.0066 -3.21304 -0.596949 3.99101 -3.23526 0.0403153 4.03514 7.87297 -10.4355 -8.79861 8.0754 -9.48972 -10.6622 -0.0 0.0 -0.0 6.82972 -4.69651 13.198 -9.96731 -7.47324 61.7696 0.244447 -6.90459 0.0147468 9.19189 0.232037 -1.14999 1.78975 -27.8951 -0.319731 -0.0 0.0 -0.0 8.75333 27.7023 -15.9046 -6.88724 47.9833 -72.3637 0.227228 6.42247 -0.0127488 -72.5015 6.86556 -5.31769 2.18787 19.335 -6.31869 0.0 0.0 0.0 21.1773 -16.0791 7.77294 -9.32412 0.270164 1.40388 1.78095 25.0642 -0.270942 -18.7398 0.0 0.0 -0.0 0.0 -0.0 4.90825 22.87 0.0540784 -49.4081 1.17102 -7.26107 -24.7515 -29.3512 -3.98035 24.1667 -0.0 -0.0 0.0 0.0 0.0 
3143.57964169 676.396 -1744.45755308 1.77565839724 7.33351014751 -5.39006848036 -3.26799 0.734858 3.96797 -3.25936 0.481084 4.0066 -3.21304 -0.596949 3.99101 -3.23526 0.0403153 4.03514 7.87297 -10.4355 -8.79861 8.0754 -9.48972 -10.6622 -0.0 0.0 -0.0 6.82972 -4.69651 13.198 -9.96731 -7.47324 61.7696 0.244447 -6.90459 0.0147468 9.19189 0.232037 -1.14999 1.78975 -27.8951 -0.319731 -0.0 0.0 -0.0 8.75333 27.7023 -15.9046 -6.88724 47.9833 -72.3637 0.227228 6.42247 -0.0127488 -72.5015 6.86556 -5.31769 2.18787 19.335 -6.31869 0.0 0.0 0.0 21.1773 -16.0791 7.77294 -9.32412 0.270164 1.40388 1.78095 25.0642 -0.270942 -18.7398 0.0 0.0 -0.0 0.0 -0.0 4.90825 22.87 0.0540784 -49.4081 1.17102 -7.26107 -24.7515 -29.3512 -3.98035 24.1667 -0.0 -0.0 0.0 0.0 0.0 
3125.85957974 685.222 -1776.56011419 2.52928673366 6.14103805381 -5.26963830679 -3.10219 0.681831 3.73423 -3.09455 0.443004 3.76997 -3.05454 -0.560577 3.75432 -3.0742 0.0389383 3.79568 9.13106 -10.1801 -9.94392 9.342 -7.70389 -12.118 -0.0 0.0 -0.0 6.81537 -5.23861 13.1562 -8.55234 -6.8391 62.284 0.397242 -11.1327 0.0387147 8.58363 0.222413 -1.07289 1.4845 -27.8601 -2.248 -0.0 0.0 -0.0 8.77369 27.8698 -15.9306 -9.58332 48.2708 -69.6435 0.251463 7.10076 -0.0156021 -72.5844 6.87616 -5.31796 2.36316 19.076 -7.61068 0.0 0.0 0.0 20.0908 -15.8759 8.8997 -10.5424 0.288474 1.58992 1.84751 24.6377 -0.280405 -17.6069 0.0 0.0 -0.0 0.0 -0.0 6.11244 21.9071 0.867714 -54.4014 1.62672 -7.88046 -24.7508 -29.5086 -3.98441 26.8354 -0.0 -0.0 0.0 0.0 0.0 
3125.56389923 685.222 -1776.41859419 2.530046937 6.2989189058 -5.27665474133 -3.10219 0.681831 3.73423 -3.09455 0.443004 3.76997 -3.05454 -0.560577 3.75432 -3.0742 0.0389383 3.79568 9.13106 -10.1801 -9.94392 9.342 -7.70389 -12.118 -0.0 0.0 -0.0 6.81537 -5.23861 13.1562 -8.55234 -6.8391 62.284 0.397242 -11.1327 0.0387147 8.58363 0.222413 -1.07289 1.4845 -27.8601 -2.248 -0.0 0.0 -0.0 8.77369 27.8698 -15.9306 -9.58332 48.2708 -69.6435 0.251463 7.10076 -0.0156021 -72.5844 6.87616 -5.31796 2.36316 19.076 -7.61068 0.0 0.0 0.0 20.0908 -15.8759 8.8997 -10.5424 0.288474 1.58992 1.84751 24.6377 -0.280405 -17.6069 0.0 0.0 -0.0 0.0 -0.0 6.11244 21.9071 0.867714 -54.4014 1.62672 -7.88046 -24.7508 -29.5086 -3.98441 26.8354 -0.0 -0.0 0.0 0.0 0.0 
3123.87752258 685.222 -1775.59213118 2.53478274864 7.20343625556 -5.31693844523 -3.10219 0.681831 3.73423 -3.09455 0.443004 3.76997 -3.05454 -0.560577 3.75432 -3.0742 0.0389383 3.79568 9.13106 -10.1801 -9.94392 9.342 -7.70389 -12.118 -0.0 0.0 -0.0 6.81537 -5.23861 13.1562 -8.55234 -6.8391 62.284 0.397242 -11.1327 0.0387147 8.58363 0.222413 -1.07289 1.4845 -27.8601 -2.248 -0.0 0.0 -0.0 8.77369 27.8698 -15.9306 -9.58332 48.2708 -69.6435 0.251463 7.10076 -0.0156021 -72.5844 6.87616 -5.31796 2.36316 19.076 -7.61068 0.0 0.0 0.0 20.0908 -15.8759 8.8997 -10.5424 0.288474 1.58992 1.84751 24.6377 -0.280405 -17.6069 0.0 0.0 -0.0 0.0 -0.0 6.11244 21.9071 0.867714 -54.4014 1.62672 -7.88046 -24.7508 -29.5086 -3.98441 26.8354 -0.0 -0.0 0.0 0.0 0.0 
3110.38984062 671.13 -1790.75566783 3.91211022217 7.27027842357 -5.63022046749 -3.11079 0.665912 3.49954 -3.10409 0.44202 3.53476 -3.06719 -0.500554 3.52696 -3.08454 0.0623781 3.56171 9.33408 -9.01373 -9.03044 9.50458 -6.57942 -11.0182 -0.0 0.0 -0.0 6.64078 -4.98848 12.8036 -7.44303 -5.73963 62.0625 0.478125 -13.3251 0.0558503 7.88988 0.210437 -0.985082 1.27761 -27.9101 -3.59028 -0.0 0.0 -0.0 8.87604 28.1003 -16.1308 -12.7525 48.7618 -66.8158 0.300291 8.46119 -0.0222132 -72.7191 6.89337 -5.31837 2.45298 18.7781 -8.35336 0.0 0.0 0.0 18.3234 -15.7612 10.2915 -12.3759 0.308565 1.87052 3.88078 24.1975 -0.584781 -16.306 0.0 0.0 -0.0 0.0 -0.0 7.8915 20.6903 -0.0427742 -58.3939 2.02907 -8.34612 -25.2738 -29.8013 -4.07657 30.2605 -0.0 -0.0 0.0 0.0 0.0 
3099.43830264 677.43 -1811.64826051 4.89699199857 6.96419826224 -5.85493018072 -3.10197 0.522507 3.20959 -3.0963 0.317323 3.2363 -3.07052 -0.542876 3.20622 -3.08487 -0.0299794 3.25166 8.07767 -6.70443 -6.42063 8.17247 -5.37817 -7.77638 -0.0 0.0 -0.0 6.39303 -5.26867 12.2879 -4.77778 -4.45399 60.6487 0.595784 -16.4433 0.086084 8.23877 0.216592 -1.02922 0.967033 -25.7271 -4.60916 -0.0 0.0 -0.0 8.74699 25.97 -16.0784 -19.3561 50.6294 -62.9861 0.371916 10.4391 -0.033975 -73.6379 7.01081 -5.32006 2.37647 18.9755 -7.74731 0.0 0.0 0.0 16.8008 -15.8418 10.0638 -15.0042 0.321683 2.27353 7.24092 25.0537 -1.08605 -14.7683 0.0 0.0 -0.0 0.0 -0.0 8.70698 20.3403 0.0734982 -60.3921 2.24247 -8.5685 -24.6253 -28.2677 -3.93263 33.4543 -0.0 -0.0 0.0 0.0 0.0 
3085.10295106 676.974 -1829.87871291 6.58620269009 8.13172541128 -5.4133813604 -3.74059 0.376517 2.94949 -3.73577 0.188155 2.96745 -3.71888 -0.630004 2.90595 -3.73063 -0.163368 2.96891 7.43627 -4.9955 -4.57588 7.48769 -4.27494 -5.52944 -0.0 0.0 -0.0 6.31844 -5.11986 12.1395 -3.2559 -3.50266 60.5699 0.741084 -20.1587 0.131734 7.70076 0.206988 -0.961171 0.56808 -25.0581 -6.90754 -0.0 0.0 -0.0 9.89477 24.4758 -18.7846 -24.2556 50.8942 -58.3362 0.410099 11.4836 -0.0412357 -73.9851 7.05519 -5.3202 2.37558 20.0162 -7.2465 0.0 0.0 0.0 14.8159 -16.368 9.78696 -15.9172 0.321912 2.4136 9.71146 26.3816 -1.45674 -14.3574 0.0 0.0 -0.0 0.0 -0.0 10.0302 21.0567 0.0999455 -62.4641 2.47186 -8.79119 -20.341 -24.862 -3.18415 34.3232 -0.0 -0.0 0.0 0.0 0.0 
3047.80424155 683.449 -1854.84622536 8.19054735699 9.69361753736 -5.82952040322 -4.20008 0.214452 2.45322 -4.19674 0.0579614 2.46188 -4.18919 -0.636594 2.37891 -4.197 -0.253019 2.44954 6.33558 -1.99445 -3.21431 6.36068 -0.527029 -3.81067 -0.0 0.0 -0.0 6.65243 -6.3674 12.7893 1.86905 -1.78315 59.6203 1.00866 -26.549 0.237969 7.5365 0.203928 -0.940411 0.174475 -20.5896 -7.59263 -0.0 0.0 -0.0 10.5208 22.3777 -20.384 -34.0913 52.6991 -47.9513 0.470613 13.123 -0.0541318 -73.9175 7.04655 -5.3202 2.47675 23.3842 -6.2874 0.0 0.0 0.0 9.01011 -17.588 11.1096 -12.0141 0.305311 1.8151 16.6192 28.9575 -2.47573 -16.1578 0.0 0.0 -0.0 0.0 -0.0 15.8075 21.4043 -2.75387 -66.8034 2.97765 -9.23013 -13.067 -20.2425 -1.9954 36.361 -0.0 -0.0 0.0 0.0 0.0 
3031.70257526 685.369 -1873.79598956 7.3322351026 12.672003692 -5.28278545341 -3.8874 0.224858 2.17031 -3.88479 0.0863331 2.18021 -3.87766 -0.518558 2.11943 -3.88388 -0.177408 2.1747 7.19925 -1.89096 -2.81037 7.21765 -0.664028 -3.35869 -0.0 0.0 -0.0 6.41499 -7.01614 12.276 3.13479 -2.68552 58.8853 1.12812 -29.1971 0.29383 7.67051 0.206429 -0.957348 0.0660037 -19.7553 -7.96255 -0.0 0.0 -0.0 11.4254 22.5346 -22.4187 -35.1979 50.9555 -46.4326 0.471657 13.1512 -0.0543692 -73.2151 6.95678 -5.31952 2.67094 25.1927 -6.65863 0.0 0.0 0.0 4.55832 -19.0684 10.4594 -2.33136 0.0889462 0.346705 17.8835 28.6277 -2.64556 -19.4129 0.0 0.0 -0.0 0.0 -0.0 18.6528 23.0563 -3.86765 -65.771 2.85431 -9.12916 -11.027 -19.4912 -1.67575 36.2593 -0.0 -0.0 0.0 0.0 0.0 
